HIERARCHY
ROOT Hips
{
    OFFSET 0.000000 0.000000 0.000000
    CHANNELS 6 Xposition Yposition Zposition Zrotation Xrotation Yrotation
    JOINT Spine
    {
        OFFSET -0.000000 14.517291 0.000000
        CHANNELS 3 Zrotation Xrotation Yrotation
        JOINT Spine1
        {
            OFFSET -0.000000 37.558300 0.000000
            CHANNELS 3 Zrotation Xrotation Yrotation
            JOINT Neck
            {
                OFFSET -0.000000 37.404057 3.400369
                CHANNELS 3 Zrotation Xrotation Yrotation
                JOINT Head
                {
                    OFFSET -0.000000 24.785618 -3.540803
                    CHANNELS 3 Zrotation Xrotation Yrotation
                    End Site
                    {
                        OFFSET -0.000000 35.408028 0.000000
                    }
                }
            }
            JOINT LeftShoulder
            {
                OFFSET 6.992933 33.973492 -0.192664
                CHANNELS 3 Zrotation Xrotation Yrotation
                JOINT LeftArm
                {
                    OFFSET 21.527611 0.000000 0.000000
                    CHANNELS 3 Zrotation Xrotation Yrotation
                    JOINT LeftForeArm
                    {
                        OFFSET 56.353916 0.000000 0.000000
                        CHANNELS 3 Zrotation Xrotation Yrotation
                        JOINT LeftHand
                        {
                            OFFSET 47.774071 0.000000 0.000000
                            CHANNELS 3 Zrotation Xrotation Yrotation
                            End Site
                            {
                                OFFSET 26.556021 0.000000 0.000000
                            }
                        }
                    }
                }
            }
            JOINT RightShoulder
            {
                OFFSET -7.065357 33.973492 -0.192664
                CHANNELS 3 Zrotation Xrotation Yrotation
                JOINT RightArm
                {
                    OFFSET -21.527611 0.000000 0.000000
                    CHANNELS 3 Zrotation Xrotation Yrotation
                    JOINT RightForeArm
                    {
                        OFFSET -56.353916 0.000000 0.000000
                        CHANNELS 3 Zrotation Xrotation Yrotation
                        JOINT RightHand
                        {
                            OFFSET -47.774071 0.000000 0.000000
                            CHANNELS 3 Zrotation Xrotation Yrotation
                            End Site
                            {
                                OFFSET -26.556021 0.000000 0.000000
                            }
                        }
                    }
                }
            }
        }
    }
    JOINT LeftUpLeg
    {
        OFFSET 17.704014 0.000000 0.000000
        CHANNELS 3 Zrotation Xrotation Yrotation
        JOINT LeftLeg
        {
            OFFSET -0.000000 -81.181816 0.000000
            CHANNELS 3 Zrotation Xrotation Yrotation
            JOINT LeftFoot
            {
                OFFSET -0.000000 -62.821102 0.000000
                CHANNELS 3 Zrotation Xrotation Yrotation
                JOINT LeftToeBase
                {
                    OFFSET -0.000000 -11.507608 26.556021
                    CHANNELS 3 Zrotation Xrotation Yrotation
                    End Site
                    {
                        OFFSET -0.000000 0.000000 7.081605
                    }
                }
            }
        }
    }
    JOINT RightUpLeg
    {
        OFFSET -17.704014 0.000000 0.000000
        CHANNELS 3 Zrotation Xrotation Yrotation
        JOINT RightLeg
        {
            OFFSET -0.000000 -81.181816 0.000000
            CHANNELS 3 Zrotation Xrotation Yrotation
            JOINT RightFoot
            {
                OFFSET -0.000000 -62.821102 0.000000
                CHANNELS 3 Zrotation Xrotation Yrotation
                JOINT RightToeBase
                {
                    OFFSET -0.000000 -11.507608 26.556021
                    CHANNELS 3 Zrotation Xrotation Yrotation
                    End Site
                    {
                        OFFSET -0.000000 0.000000 7.081605
                    }
                }
            }
        }
    }
}
MOTION
Frames:    9
Frame Time:    0.008333
33.174988    159.558640    -101.135483    -0.817508    -1.315841    26.037901    -0.712907    -5.387725    0.380791    -2.364660    5.400965    0.249712    3.764198    -3.211230    -4.698152    9.096311    2.239383    -4.435996    6.634340    2.249977    -15.811006    -32.312534    9.784551    -56.667377    -0.535504    -40.490540    -109.650787    -10.256052    -39.860611    -17.515673    -3.623677    11.779728    -1.009367    26.030149    28.254433    64.515060    15.361010    10.975866    16.319904    7.441971    9.889421    16.964195    9.380861    2.486096    -0.344395    -9.744660    21.777740    -17.500111    5.769109    -22.299679    44.542992    0.000000    0.000000    0.000000    -14.693470    -25.785980    -9.472857    12.012753    27.769039    -13.943320    3.053754    11.703107    -11.347986    0.000000    0.000000    0.000000    
33.181011    159.556885    -101.134071    -0.810326    -1.311019    26.010012    -0.732747    -5.377561    0.359611    -2.378818    5.397875    0.243721    3.776014    -3.197938    -4.673230    9.093815    2.207529    -4.409460    6.648771    2.246362    -15.812184    -32.329731    9.737299    -56.621761    -0.586587    -40.425709    -109.681511    -10.230228    -39.855152    -17.504662    -3.598770    11.821897    -1.051346    26.020002    28.363821    64.406189    15.143042    10.936383    16.405409    7.503670    9.879183    16.969395    9.367629    2.503150    -0.310313    -9.735279    21.761717    -17.509102    5.765176    -22.299530    44.540668    0.000000    0.000000    0.000000    -14.688584    -25.788214    -9.460662    12.005554    27.756250    -13.930245    3.036779    11.703773    -11.342072    0.000000    0.000000    0.000000    
33.189522    159.554474    -101.131943    -0.799376    -1.303926    25.993296    -0.760672    -5.367428    0.331015    -2.390600    5.397410    0.234886    3.793315    -3.198991    -4.641266    9.083214    2.186241    -4.378875    6.659286    2.241169    -15.800582    -32.287437    9.747627    -56.608692    -0.578196    -40.467430    -109.667900    -10.267118    -39.881382    -17.534636    -3.582050    11.842615    -1.099278    26.055534    28.444820    64.280289    15.015825    10.897326    16.401478    7.559366    9.869536    17.005547    9.350613    2.514665    -0.282971    -9.726000    21.750597    -17.514490    5.752859    -22.304996    44.524689    0.000000    0.000000    0.000000    -14.694264    -25.790892    -9.466211    11.986156    27.757822    -13.907203    3.047621    11.690444    -11.328684    0.000000    0.000000    0.000000    
33.193882    159.552048    -101.134804    -0.786807    -1.293910    25.972097    -0.790560    -5.353531    0.301228    -2.405254    5.393637    0.226062    3.748146    -3.197472    -4.623048    9.159649    2.171993    -4.341184    6.657058    2.223494    -15.791259    -32.253441    9.741604    -56.578220    -0.592191    -40.474842    -109.667419    -10.284582    -39.900803    -17.552481    -3.565832    11.876112    -1.150911    26.075005    28.526999    64.164978    14.871781    10.834458    16.406338    7.608744    9.836107    17.037788    9.327911    2.523401    -0.253231    -9.712703    21.735521    -17.519817    5.748106    -22.301943    44.520065    0.000000    0.000000    0.000000    -14.701377    -25.800295    -9.463575    11.978382    27.757401    -13.910378    3.037288    11.689518    -11.310932    0.000000    0.000000    0.000000    
33.198505    159.551636    -101.138077    -0.778713    -1.281194    25.957018    -0.828363    -5.342096    0.261233    -2.412072    5.385098    0.213627    3.722168    -3.195401    -4.595462    9.216025    2.159698    -4.299741    6.652615    2.203906    -15.766935    -32.210384    9.750600    -56.556915    -0.590672    -40.486889    -109.652954    -10.278029    -39.911572    -17.557627    -3.541220    11.902583    -1.176631    26.065704    28.621017    63.990437    14.691988    10.786686    16.435053    7.684111    9.823550    17.066435    9.309465    2.521338    -0.247114    -9.707648    21.731565    -17.523748    5.757425    -22.288807    44.527790    0.000000    0.000000    0.000000    -14.713492    -25.815886    -9.443901    11.988084    27.760574    -13.931754    3.045318    11.685911    -11.315681    0.000000    0.000000    0.000000    
33.197029    159.553497    -101.142334    -0.773641    -1.267846    25.934475    -0.861980    -5.325233    0.230273    -2.425909    5.366378    0.203959    3.688475    -3.198961    -4.564410    9.286238    2.156563    -4.252474    6.649329    2.185176    -15.742170    -32.193470    9.733512    -56.534584    -0.625413    -40.443810    -109.657280    -10.251245    -39.910343    -17.544781    -3.513089    11.933763    -1.210810    26.031233    28.749912    63.816570    14.491287    10.630542    16.470892    7.815315    9.713333    17.101833    9.297681    2.519878    -0.240288    -9.713432    21.723122    -17.530500    5.750607    -22.286369    44.544048    0.000000    0.000000    0.000000    -14.711436    -25.836252    -9.423353    11.982365    27.759243    -13.923886    3.018939    11.699874    -11.318584    0.000000    0.000000    0.000000    
33.193802    159.555695    -101.153435    -0.777632    -1.254212    25.919348    -0.903628    -5.303302    0.190706    -2.417021    5.343469    0.190931    3.623812    -3.215136    -4.539676    9.392368    2.160814    -4.202842    6.633159    2.154190    -15.715842    -32.207920    9.705810    -56.502121    -0.654080    -40.367352    -109.660660    -10.261091    -39.863411    -17.545300    -3.487559    11.961811    -1.237128    26.048643    28.797066    63.590122    14.394824    10.560948    16.453640    7.841781    9.668442    17.170877    9.292413    2.505850    -0.240179    -9.714332    21.723387    -17.555216    5.761045    -22.281731    44.588669    0.000000    0.000000    0.000000    -14.707092    -25.859867    -9.412018    11.972332    27.756264    -13.913793    3.034648    11.724260    -11.323393    0.000000    0.000000    0.000000    
33.189209    159.559387    -101.166847    -0.784407    -1.237700    25.903086    -0.937079    -5.283562    0.154317    -2.422464    5.324778    0.179178    3.551264    -3.210260    -4.522369    9.509987    2.129790    -4.154545    6.624925    2.130244    -15.670197    -32.188168    9.693351    -56.502472    -0.678149    -40.323837    -109.661240    -10.226274    -39.852680    -17.508827    -3.450744    11.994187    -1.283866    26.099253    28.777044    63.326355    14.364360    10.559493    16.426691    7.860847    9.679660    17.199619    9.286879    2.485307    -0.230324    -9.715048    21.723907    -17.538696    5.752572    -22.279137    44.584625    0.000000    0.000000    0.000000    -14.701698    -25.885593    -9.387552    11.976933    27.742077    -13.954438    3.021281    11.748571    -11.291929    0.000000    0.000000    0.000000    
33.182598    159.565918    -101.178802    -0.796747    -1.233314    25.894190    -0.961601    -5.256057    0.114946    -2.440433    5.310645    0.166491    3.555307    -3.204194    -4.495622    9.535593    2.074116    -4.119398    6.642595    2.092982    -15.624866    -32.197807    9.677460    -56.502140    -0.706157    -40.266781    -109.659058    -10.216893    -39.828197    -17.489265    -3.405095    12.027078    -1.334000    26.173971    28.705854    63.039234    14.403579    10.575210    16.385002    7.875817    9.691902    17.122089    9.289327    2.468839    -0.233470    -9.708901    21.735178    -17.523384    5.761189    -22.271576    44.579170    0.000000    0.000000    0.000000    -14.683534    -25.902321    -9.376688    11.963933    27.739639    -13.933734    3.027410    11.770491    -11.307658    0.000000    0.000000    0.000000    
